<svg width="150" height="80" viewBox="0 0 150 80" fill="none" xmlns="http://www.w3.org/2000/svg">
<path d="M41.7285 3.54358C31.382 3.54358 25.2963 9.74366 22.7511 21.9716L14.9813 59.1802C12.4407 71.5175 15.853 80 28.6538 80C41.556 80 45.4997 72.5511 48.1406 60.0811L55.7553 24.3645C58.4963 11.6012 53.4548 3.54358 41.7285 3.54358ZM46.1932 22.5244L38.0353 61.0192C36.5564 67.7698 34.4144 71.5979 29.6899 71.5979C24.167 71.5979 23.2195 67.2018 24.6262 60.7073L32.784 22.0123C34.1324 15.4817 36.5506 12.0237 40.8614 12.0237C46.185 12.0237 47.5637 16.0427 46.1932 22.5244Z" fill="#FA4440"/>
<path d="M73.1315 25.8438C69.9103 25.8438 67.8498 27.1916 66.1856 29.2191L69.9045 12.019H62.9866L53.5364 56.4474C52.5749 60.8399 51.8931 64.512 51.3337 67.0062H58.0045C58.3784 65.8208 58.6842 64.6149 58.9205 63.3947C59.551 65.584 61.1453 67.5963 64.9503 67.5963C71.5931 67.5963 74.2852 62.0876 75.9669 54.1964L79.23 38.8609C80.9432 30.6693 78.9375 25.8438 73.1315 25.8438ZM72.4474 38.4384L69.0525 54.1847C67.9023 59.6329 66.3302 61.5045 63.7581 61.5045C60.5148 61.5045 59.8587 58.8648 60.8714 54.1137L63.9189 39.5161C64.8897 34.9036 66.2497 31.6517 69.7564 31.6517C73.1023 31.6517 73.3039 34.3636 72.4474 38.4384Z" fill="#FA4440"/>
<path d="M93.5412 34.1204C84.38 34.1204 82.943 40.4217 81.8371 45.5615L81.7019 46.1783H88.5393L88.8062 45.0738C89.6033 41.8603 90.249 39.6291 92.9562 39.6291C95.6634 39.6291 96.1284 41.6391 95.4117 44.9225L94.2463 50.3323C93.6939 50.4091 93.1974 50.4894 92.6683 50.5651C83.2018 52.0328 78.6147 54.5724 76.6242 63.7544C75.3038 69.9917 76.3387 75.9113 82.5363 75.9113C85.7668 75.9113 87.8109 74.8068 89.7525 71.8598C89.5194 73.0737 89.3353 74.4087 89.2316 75.2816H95.9594C96.1401 73.9175 97.2134 68.8453 97.8078 65.9402L102.295 44.656C103.644 38.2545 101.134 34.1204 93.5412 34.1204ZM92.1754 60.4745C90.8573 66.7083 89.2782 69.8288 86.0349 69.8288C82.9885 69.8288 82.8463 66.7374 83.5665 63.4913C84.7319 58.4808 87.1478 57.0073 91.8665 56.0424L93.1904 55.8096L92.1754 60.4745Z" fill="#FA4440"/>
<path d="M123.247 25.8077C119.984 25.8077 117.43 27.2649 115.739 29.6486L119.483 11.9888H112.566L100.881 66.9702H107.8L113.692 39.4323C114.782 34.4334 116.177 31.6144 119.519 31.6144C122.746 31.6144 122.839 34.0412 122.083 37.5829L115.841 66.9702H122.756L129.317 36.2316C130.56 30.4203 129.147 25.8077 123.247 25.8077Z" fill="#FA4440"/>
<path d="M134.644 60.7037L149.172 10.0404H137.817L129.451 60.7037H134.644Z" fill="#FFEC59"/>
<path d="M131.213 64.3816C129.63 64.3816 128.062 64.8902 126.507 65.9075C124.952 66.9212 123.992 68.3005 123.641 70.03C123.233 71.7677 123.569 73.1399 124.659 74.1607C125.748 75.1814 127.072 75.6738 128.663 75.6738C129.47 75.6674 130.27 75.5319 131.033 75.2722C131.846 75.0084 132.618 74.6323 133.326 74.1549C134.038 73.664 134.663 73.0574 135.174 72.3601C135.69 71.6671 136.048 70.8699 136.223 70.0242C136.581 68.2946 136.208 66.9154 135.126 65.9017C134.072 64.9017 132.667 64.3557 131.213 64.3816Z" fill="#FFEC59"/>
<path d="M4.85487 0.000582024C3.86195 0.000582024 2.87796 0.31949 1.9029 0.957306C0.932119 1.59163 0.324943 2.45874 0.104682 3.54349C-0.150542 4.6329 0.0603966 5.49418 0.743324 6.13083C1.42625 6.76749 2.25835 7.08407 3.25477 7.08407C3.76082 7.0802 4.26294 6.99492 4.74183 6.8315C5.25049 6.66611 5.7334 6.43025 6.17644 6.13083C6.62507 5.82464 7.01901 5.44536 7.34184 5.00884C7.66626 4.57423 7.89177 4.07414 8.00263 3.54349C8.22755 2.45874 7.9933 1.59396 7.31504 0.957306C6.65293 0.327611 5.76901 -0.0161295 4.85487 0.000582024Z" fill="#FFEC59"/>
<path d="M15.8038 5.1637C13.8436 5.1637 11.9013 5.78095 9.97682 7.01546C8.05157 8.24803 6.86286 9.9252 6.42816 12.0202C5.92238 14.1292 6.33959 15.7947 7.68796 17.0366C9.03634 18.2785 10.6784 18.8791 12.6479 18.8791C13.6463 18.8715 14.6374 18.7073 15.5847 18.3926C16.589 18.0731 17.5443 17.6168 18.4237 17.0366C19.3023 16.4434 20.0755 15.7078 20.7114 14.8601C21.3505 14.0229 21.7959 13.0546 22.0154 12.0249C22.4595 9.92986 21.998 8.24919 20.6577 7.02011C19.3175 5.79104 17.6941 5.1637 15.8038 5.1637Z" fill="#FFEC59"/>
</svg>
